# This file uses centimeters as units for non-parametric coordinates.

mtllib fork_01.mtl
g default
v 0.816616 0.145422 1.987979
v 0.800508 0.161311 1.971868
v 0.800508 0.161311 1.905245
v 0.816616 0.145422 1.889133
v -0.234254 0.124741 1.978048
v -0.234254 0.133946 1.961937
v -0.250178 0.134311 1.977659
v -0.250178 0.134311 1.899453
v -0.234254 0.133946 1.915176
v -0.234254 0.124741 1.899065
v -0.284648 0.141234 2.017172
v -0.263978 0.120085 2.018540
v -0.506657 0.132834 1.971532
v -0.487378 0.139750 1.971872
v -0.501323 0.140070 1.955291
v -0.488503 0.149812 2.018104
v -0.505836 0.134997 2.007546
v -0.332416 0.152046 2.031930
v -0.325731 0.139925 2.050287
v -0.506674 0.148731 2.070369
v -0.501323 0.161533 2.051690
v -0.501323 0.140070 1.921838
v -0.487378 0.139750 1.905241
v -0.506657 0.132834 1.905581
v -0.505836 0.134997 1.869566
v -0.488503 0.149812 1.859008
v -0.263978 0.120085 1.858573
v -0.284648 0.141234 1.859941
v -0.501323 0.161533 1.825423
v -0.506674 0.148731 1.806743
v -0.325731 0.139925 1.826826
v -0.332416 0.152046 1.845182
v -0.734818 0.216600 1.939498
v -0.616835 0.189926 1.939040
v -0.734836 0.216535 1.859879
v -0.616409 0.194166 1.851446
v -0.616409 0.194166 2.025667
v -0.734836 0.216535 2.017234
v 0.801109 0.077702 1.972472
v 0.816616 0.093209 1.987979
v 0.801109 0.077702 1.904640
v 0.816616 0.093209 1.889133
v -0.234254 0.093337 1.899065
v -0.234254 0.077702 1.914572
v -0.250004 0.078206 1.899419
v -0.250006 0.078206 1.977694
v -0.234254 0.077702 1.962541
v -0.234254 0.093336 1.978048
v -0.524068 0.086968 1.955792
v -0.505244 0.086366 1.971955
v -0.517933 0.103128 1.971532
v -0.517956 0.103069 2.007546
v -0.505205 0.086365 2.008696
v -0.524068 0.086968 2.023118
v -0.279733 0.078206 2.008929
v -0.263978 0.093465 2.018540
v -0.524068 0.086968 2.054688
v -0.519829 0.102019 2.070369
v -0.330005 0.078697 2.034588
v -0.325731 0.093686 2.050287
v -0.279730 0.078206 1.868182
v -0.263978 0.093463 1.858573
v -0.517931 0.103135 1.905581
v -0.505205 0.086365 1.905157
v -0.524068 0.086968 1.921294
v -0.517942 0.103105 1.869566
v -0.524068 0.086968 1.854019
v -0.505260 0.086367 1.868420
v -0.330023 0.078701 1.842589
v -0.325731 0.093686 1.826826
v -0.524068 0.086968 1.822425
v -0.519829 0.102019 1.806743
v -0.644397 0.120855 1.939060
v -0.748953 0.166410 1.939498
v -0.638623 0.119229 1.849202
v -0.748953 0.166410 1.859879
v -0.638623 0.119229 2.027910
v -0.748953 0.166410 2.017234
v 0.265947 0.154113 1.894338
v 0.258279 0.166500 1.910449
v 0.258279 0.166500 1.966664
v 0.265947 0.154113 1.982775
v 0.265947 0.112804 1.982775
v 0.258566 0.097231 1.967268
v 0.258566 0.097231 1.909845
v 0.265947 0.112805 1.894338
vt 0.928377 0.011899
vt 0.927001 0.034811
vt 0.908102 0.034811
vt 0.908064 0.011899
vt 0.897438 0.034542
vt 0.897437 0.011167
vt 0.897821 0.044825
vt 0.897821 0.001992
vt 0.913532 0.081469
vt 0.913551 0.058557
vt 0.932446 0.058557
vt 0.933822 0.081469
vt 0.902882 0.058826
vt 0.902883 0.082198
vt 0.903266 0.048560
vt 0.903266 0.091360
vt 0.847124 0.064878
vt 0.847124 0.001992
vt 0.880341 0.001992
vt 0.880341 0.064878
vt 0.837258 0.055012
vt 0.837258 0.011858
vt 0.890450 0.054628
vt 0.890450 0.012242
vt 0.457268 0.680687
vt 0.407514 0.680687
vt 0.417516 0.670556
vt 0.447266 0.670556
vt 0.453587 0.831594
vt 0.411196 0.831594
vt 0.407267 0.670556
vt 0.414509 0.357206
vt 0.450273 0.357206
vt 0.457516 0.670556
vt 0.421745 0.840466
vt 0.443027 0.840466
vt 0.382376 0.702617
vt 0.381783 0.832310
vt 0.483000 0.832310
vt 0.482406 0.702617
vt 0.404259 0.352328
vt 0.381506 0.689467
vt 0.411198 0.012240
vt 0.453584 0.012240
vt 0.460523 0.352328
vt 0.483277 0.689467
vt 0.411412 0.843859
vt 0.453370 0.843859
vt 0.432083 0.913955
vt 0.388499 0.843337
vt 0.360415 0.840466
vt 0.372986 0.733007
vt 0.476283 0.843337
vt 0.491796 0.733007
vt 0.504367 0.840466
vt 0.400948 0.001992
vt 0.361308 0.728754
vt 0.463834 0.001992
vt 0.503474 0.728754
vt 0.431792 0.989016
vt 0.382336 0.989027
vt 0.376971 0.913684
vt 0.348532 0.843870
vt 0.487811 0.913684
vt 0.482446 0.989027
vt 0.516251 0.843870
vt 0.074741 0.854936
vt 0.064475 0.842936
vt 0.106972 0.842960
vt 0.096689 0.854936
vt 0.060824 0.680577
vt 0.110623 0.680578
vt 0.086044 0.931489
vt 0.040951 0.699489
vt 0.041102 0.842970
vt 0.070464 0.670556
vt 0.100982 0.670556
vt 0.130347 0.842936
vt 0.130495 0.699490
vt 0.064744 0.851032
vt 0.086323 0.998008
vt 0.106702 0.851034
vt 0.060599 0.670556
vt 0.034838 0.689467
vt 0.011840 0.854936
vt 0.024669 0.731485
vt 0.067457 0.357024
vt 0.103990 0.357024
vt 0.110848 0.670556
vt 0.136609 0.689467
vt 0.159606 0.854936
vt 0.146819 0.731473
vt 0.014640 0.728754
vt 0.031940 0.854936
vt 0.001864 0.852239
vt 0.057591 0.352328
vt 0.107301 0.011857
vt 0.064146 0.011857
vt 0.113855 0.352328
vt 0.156806 0.728754
vt 0.139522 0.854936
vt 0.169583 0.852239
vt 0.028876 0.927816
vt 0.035668 0.998008
vt 0.054280 0.001992
vt 0.117166 0.001992
vt 0.142571 0.927816
vt 0.135778 0.998008
vt 0.041832 0.851039
vt 0.129615 0.851048
vt 0.182717 0.852239
vt 0.177416 0.728754
vt 0.206833 0.728754
vt 0.212436 0.843870
vt 0.177275 0.689467
vt 0.194211 0.689467
vt 0.255572 0.989027
vt 0.223683 0.998008
vt 0.177193 0.670556
vt 0.197173 0.670556
vt 0.189579 0.352328
vt 0.215860 0.352328
vt 0.210330 0.001992
vt 0.177113 0.001992
vt 0.305959 0.843870
vt 0.311561 0.728754
vt 0.340979 0.728754
vt 0.335677 0.852239
vt 0.324184 0.689467
vt 0.341121 0.689467
vt 0.294712 0.998008
vt 0.262822 0.989027
vt 0.321222 0.670556
vt 0.341201 0.670556
vt 0.302535 0.352328
vt 0.328815 0.352328
vt 0.341282 0.001992
vt 0.308064 0.001992
vt 0.720688 0.156141
vt 0.680428 0.009166
vt 0.699327 0.001992
vt 0.752619 0.147148
vt 0.758843 0.147148
vt 0.812135 0.001992
vt 0.831030 0.009165
vt 0.790774 0.156141
vt 0.563872 0.156663
vt 0.523598 0.009694
vt 0.543887 0.001992
vt 0.595762 0.147682
vt 0.653888 0.001992
vt 0.674200 0.009703
vt 0.633902 0.156663
vt 0.602013 0.147682
vn 0.025447 0.998748 0.043076
vn 0.025447 0.998748 -0.043076
vn -0.061074 0.998133 0.000000
vn -0.061074 0.998133 0.000000
vn 0.003293 0.752832 0.658204
vn 0.003293 0.752832 0.658204
vn -0.030970 0.794549 0.606410
vn -0.017550 0.778714 0.627133
vn 0.702244 0.711936 0.000000
vn 0.702244 0.711936 0.000000
vn 0.702244 0.711936 0.000000
vn 0.702244 0.711936 0.000000
vn 0.003293 0.752842 -0.658193
vn 0.003293 0.752842 -0.658193
vn -0.017550 0.778724 -0.627121
vn -0.030970 0.794558 -0.606398
vn 0.566656 0.699872 0.434834
vn 0.566656 0.699872 0.434834
vn 0.566656 0.699872 0.434834
vn 0.566656 0.699872 0.434834
vn 0.566654 0.699872 -0.434835
vn 0.566654 0.699872 -0.434835
vn 0.566654 0.699872 -0.434835
vn 0.566654 0.699872 -0.434835
vn 0.436687 0.696559 0.569306
vn 0.436688 0.696559 0.569306
vn 0.173346 0.809120 0.561495
vn 0.199029 0.801271 0.564227
vn 0.203451 0.750482 0.628797
vn 0.203451 0.750481 0.628797
vn 0.203450 0.750482 0.628797
vn 0.203450 0.750482 0.628797
vn -0.476915 0.869140 -0.130950
vn -0.476915 0.869140 -0.130950
vn -0.476915 0.869140 -0.130950
vn -0.476915 0.869140 -0.130950
vn 0.146349 0.529411 -0.835647
vn 0.146349 0.529411 -0.835647
vn 0.146349 0.529411 -0.835647
vn 0.146349 0.529411 -0.835647
vn 0.107963 0.823145 0.557473
vn 0.108191 0.822692 0.558097
vn 0.109919 0.819238 0.562821
vn 0.109919 0.819238 0.562821
vn 0.199048 0.752236 -0.628109
vn 0.199048 0.752236 -0.628109
vn 0.199048 0.752236 -0.628109
vn 0.199048 0.752236 -0.628109
vn -0.476914 0.869141 0.130950
vn -0.476914 0.869141 0.130950
vn -0.476914 0.869141 0.130950
vn -0.476914 0.869141 0.130950
vn 0.146348 0.529405 0.835651
vn 0.146348 0.529405 0.835651
vn 0.146348 0.529405 0.835651
vn 0.146348 0.529405 0.835651
vn 0.436690 0.696561 -0.569302
vn 0.436690 0.696561 -0.569302
vn 0.199030 0.801270 -0.564228
vn 0.173347 0.809119 -0.561496
vn 0.107963 0.823145 -0.557473
vn 0.108191 0.822692 -0.558097
vn 0.109919 0.819239 -0.562819
vn 0.109919 0.819239 -0.562819
vn -0.022907 0.999738 0.000000
vn 0.009569 0.999954 0.000000
vn 0.009569 0.999954 0.000000
vn -0.022907 0.999738 0.000000
vn 0.032565 0.980162 -0.195507
vn 0.026664 0.997586 -0.064120
vn 0.055899 0.964096 -0.259603
vn -0.934906 0.354895 0.000001
vn -0.934906 0.354895 0.000001
vn -0.934906 0.354895 0.000001
vn -0.934906 0.354895 0.000001
vn 0.055900 0.964096 0.259604
vn 0.026664 0.997586 0.064120
vn 0.032565 0.980161 0.195508
vn -0.934906 0.354895 -0.000001
vn -0.934906 0.354895 -0.000001
vn -0.934906 0.354895 -0.000001
vn -0.934906 0.354895 -0.000001
vn 0.022253 0.916550 0.399300
vn 0.152740 0.935798 0.317730
vn 0.152741 0.935797 -0.317732
vn 0.022253 0.916549 -0.399302
vn 0.396278 0.918130 0.000000
vn 0.266522 0.963829 -0.000000
vn 0.266059 0.963957 -0.000000
vn 0.309738 0.928301 0.205719
vn 0.309737 0.928301 -0.205720
vn 0.454126 0.773575 0.441985
vn 0.454126 0.773575 0.441985
vn 0.454126 0.773575 0.441985
vn 0.454130 0.773579 -0.441975
vn 0.454130 0.773579 -0.441975
vn 0.454130 0.773579 -0.441975
vn -0.327442 0.898387 0.292715
vn -0.327442 0.898387 0.292715
vn -0.327442 0.898387 0.292715
vn -0.327459 0.898471 -0.292439
vn -0.327459 0.898471 -0.292439
vn -0.327459 0.898471 -0.292439
vn -0.173381 -0.984855 -0.000000
vn -0.032483 -0.999463 0.004363
vn -0.032483 -0.999463 -0.004359
vn -0.173664 -0.984805 -0.000000
vn -0.031691 -0.694206 0.719078
vn -0.031691 -0.694206 0.719078
vn -0.012356 -0.699242 0.714778
vn -0.001246 -0.702003 0.712173
vn 0.707108 -0.707105 0.000000
vn 0.707108 -0.707106 0.000000
vn 0.707108 -0.707106 0.000000
vn 0.707108 -0.707105 0.000000
vn -0.031691 -0.694200 -0.719084
vn -0.031691 -0.694200 -0.719084
vn -0.001246 -0.701990 -0.712185
vn -0.012356 -0.699232 -0.714788
vn 0.541946 -0.709517 -0.450422
vn 0.541946 -0.709517 -0.450422
vn 0.541946 -0.709517 -0.450422
vn 0.541946 -0.709517 -0.450422
vn 0.541907 -0.709543 0.450429
vn 0.541907 -0.709543 0.450429
vn 0.541907 -0.709543 0.450429
vn 0.541907 -0.709543 0.450429
vn -0.284312 -0.624802 0.727179
vn -0.289756 -0.622330 0.727150
vn -0.274890 -0.629016 0.727169
vn -0.274890 -0.629016 0.727169
vn -0.796082 -0.605189 -0.000322
vn -0.796082 -0.605189 -0.000322
vn -0.796082 -0.605189 -0.000322
vn -0.796082 -0.605189 -0.000322
vn -0.224372 -0.643927 -0.731448
vn -0.220664 -0.645395 -0.731282
vn -0.210299 -0.649438 -0.730757
vn -0.210299 -0.649438 -0.730756
vn 0.311594 -0.722626 0.617026
vn 0.311594 -0.722626 0.617026
vn 0.104270 -0.731279 0.674061
vn 0.108540 -0.731441 0.673211
vn -0.160972 -0.692627 0.703105
vn -0.130868 -0.699752 0.702296
vn -0.339898 -0.635222 0.693514
vn -0.339898 -0.635222 0.693515
vn 0.310887 -0.723345 -0.616540
vn 0.310887 -0.723345 -0.616540
vn 0.108334 -0.732162 -0.672460
vn 0.104092 -0.732002 -0.673303
vn -0.796815 -0.604223 0.000951
vn -0.796815 -0.604223 0.000951
vn -0.796815 -0.604223 0.000951
vn -0.796815 -0.604223 0.000951
vn -0.294906 -0.620149 -0.726943
vn -0.289502 -0.622644 -0.726982
vn -0.280285 -0.626840 -0.726989
vn -0.280285 -0.626840 -0.726989
vn -0.220490 -0.644633 0.732006
vn -0.224169 -0.643170 0.732175
vn -0.210099 -0.648704 0.731465
vn -0.210099 -0.648704 0.731465
vn -0.160860 -0.693040 -0.702723
vn -0.130771 -0.700219 -0.701850
vn -0.339899 -0.635224 -0.693512
vn -0.339899 -0.635224 -0.693512
vn -0.035971 -0.999353 0.000000
vn -0.003462 -0.999994 0.000000
vn -0.003462 -0.999994 0.000000
vn -0.035971 -0.999353 0.000000
vn -0.037095 -0.999127 -0.019233
vn -0.032292 -0.999475 -0.002781
vn -0.034720 -0.999268 -0.016082
vn -0.034716 -0.999268 0.016075
vn -0.032292 -0.999475 0.002782
vn -0.037091 -0.999127 0.019214
vn -0.096989 -0.995130 0.017611
vn -0.227410 -0.973799 0.000000
vn -0.271075 -0.962558 -0.000000
vn -0.271075 -0.962558 0.000000
vn -0.271075 -0.962558 0.000000
vn -0.227322 -0.973820 0.000000
vn -0.096946 -0.995133 -0.017644
vn -0.090894 0.031304 0.995368
vn 0.188164 -0.011699 0.982068
vn 0.173025 -0.012311 0.984841
vn -0.068983 0.026169 0.997275
vn -0.068984 0.026169 -0.997275
vn 0.173026 -0.012310 -0.984840
vn 0.188167 -0.011699 -0.982067
vn -0.090894 0.031304 -0.995368
vn 1.000000 0.000000 0.000000
vn 1.000000 0.000000 0.000000
vn 1.000000 0.000000 0.000000
vn 1.000000 0.000000 0.000000
vn -0.009450 0.000000 -0.999955
vn -0.009450 0.000000 -0.999955
vn -0.009450 0.000000 -0.999955
vn -0.009450 0.000000 -0.999955
vn -0.009450 0.000000 0.999955
vn -0.009450 0.000000 0.999955
vn -0.009450 0.000000 0.999955
vn -0.009450 0.000000 0.999955
vn 0.806121 0.000000 0.591751
vn 0.806121 0.000000 0.591751
vn 0.806121 0.000000 0.591751
vn 0.806121 0.000000 0.591751
vn 0.806120 0.000000 -0.591753
vn 0.806120 0.000000 -0.591753
vn 0.806120 0.000000 -0.591753
vn 0.806120 0.000000 -0.591753
vn 0.457219 0.000000 -0.889354
vn 0.457219 0.000000 -0.889354
vn 0.457217 0.000000 0.889355
vn 0.457217 0.000000 0.889355
vn -0.125523 0.039923 0.991287
vn -0.125523 0.039923 0.991287
vn -0.125523 0.039923 0.991287
vn -0.125523 0.039923 0.991287
vn -0.132768 0.042226 -0.990247
vn -0.132768 0.042226 -0.990247
vn -0.132768 0.042226 -0.990247
vn -0.132768 0.042226 -0.990247
vn -0.038236 0.012225 0.999194
vn -0.038236 0.012225 0.999194
vn -0.038236 0.012225 0.999194
vn -0.038236 0.012225 0.999194
vn -0.209735 0.059065 -0.975973
vn -0.209735 0.059065 -0.975973
vn -0.038237 0.012226 -0.999194
vn -0.038237 0.012226 -0.999194
vn -0.038237 0.012226 -0.999194
vn -0.038237 0.012226 -0.999194
vn -0.209734 0.059065 0.975973
vn -0.209734 0.059065 0.975973
vn -0.040234 -0.998912 -0.023565
vn 0.551149 -0.587587 -0.592432
vn 0.551149 -0.587587 -0.592432
vn 0.551149 -0.587587 -0.592432
vn 0.551093 -0.587633 0.592439
vn 0.551093 -0.587633 0.592439
vn 0.551093 -0.587633 0.592439
vn -0.595026 -0.433386 0.676846
vn -0.546939 -0.465397 -0.695890
vn -0.593800 -0.433449 -0.677881
vn -0.548133 -0.463012 0.696541
vn -0.056727 0.823110 -0.565041
vn -0.056727 0.823110 -0.565041
vn -0.056727 0.823102 0.565053
vn -0.056727 0.823102 0.565053
vn -0.009450 0.000000 0.999955
vn -0.009450 0.000000 0.999955
vn 0.021047 -0.707251 0.706649
vn 0.021047 -0.707251 0.706649
vn 0.035768 -0.999360 0.000000
vn 0.035768 -0.999360 0.000000
vn 0.021045 -0.707233 -0.706667
vn 0.021045 -0.707233 -0.706667
vn -0.009450 0.000000 -0.999955
vn -0.009450 0.000000 -0.999955
vn -0.040226 -0.998914 0.023525
s 1
g pCube1
usemtl initialShadingGroup
f 8/25/1 7/26/2 6/27/3 9/28/4
s 2
f 1/56/5 2/43/6 81/32/7 82/41/8
s off
f 2/23/9 1/20/10 4/19/11 3/24/12
s 3
f 3/44/13 4/58/14 79/45/15 80/33/16
s off
f 5/31/17 7/26/18 11/37/19 12/42/20
f 8/25/21 10/34/22 27/46/23 28/40/24
s 4
f 12/42/25 11/37/26 18/52/27 19/57/28
s off
f 13/47/29 15/35/30 34/49/31 33/60/32
f 14/30/33 13/47/34 17/50/35 16/38/36
f 16/38/37 17/50/38 38/61/39 37/62/40
s 4
f 19/57/28 18/52/27 21/51/41 20/63/42
f 20/63/42 21/51/41 37/62/43 38/61/44
s off
f 22/36/45 24/48/46 33/60/47 34/49/48
f 24/48/49 23/29/50 26/39/51 25/53/52
f 25/53/53 26/39/54 36/64/55 35/65/56
s 5
f 28/40/57 27/46/58 31/59/59 32/54/60
f 29/55/61 30/66/62 35/65/63 36/64/64
f 30/66/62 29/55/61 32/54/60 31/59/59
s 1
f 81/32/65 2/43/66 3/44/67 80/33/68
f 11/37/69 7/26/2 14/30/70 16/38/71
s off
f 17/1/72 13/2/73 51/3/74 52/4/75
s 1
f 26/39/76 23/29/77 8/25/1 28/40/78
s off
f 66/9/79 63/10/80 24/11/81 25/12/82
s 1
f 26/39/76 28/40/78 32/54/83 29/55/84
f 11/37/69 16/38/71 21/51/85 18/52/86
f 34/49/87 15/35/88 22/36/89
f 26/39/76 29/55/84 36/64/90
f 21/51/85 16/38/71 37/62/91
s off
f 5/31/92 6/27/93 7/26/94
f 8/25/95 9/28/96 10/34/97
f 13/47/98 14/30/99 15/35/100
f 22/36/101 23/29/102 24/48/103
s 7
f 65/67/104 64/68/105 50/69/106 49/70/107
s 8
f 39/97/108 40/106/109 83/99/110 84/88/111
s off
f 40/17/112 39/21/113 41/22/114 42/18/115
s 9
f 42/105/116 41/98/117 85/87/118 86/96/119
s off
f 43/83/120 45/71/121 61/74/122 62/84/123
f 46/72/124 48/89/125 56/90/126 55/79/127
s 10
f 49/70/128 51/82/129 74/81/130 73/73/131
s off
f 51/3/132 50/5/133 53/6/134 52/4/135
s 11
f 52/110/136 54/101/137 77/107/138 78/108/139
s 12
f 55/79/140 56/90/141 60/100/142 59/92/143
f 57/91/144 58/102/145 78/108/146 77/107/147
f 58/102/145 57/91/144 59/92/143 60/100/142
s 13
f 62/84/148 61/74/149 69/86/150 70/93/151
s off
f 64/13/152 63/10/153 66/9/154 68/14/155
s 14
f 63/80/156 65/67/157 73/73/158 74/81/159
s 15
f 67/94/160 66/109/161 76/104/162 75/103/163
s 13
f 70/93/151 69/86/150 71/85/164 72/95/165
f 72/95/165 71/85/164 75/103/166 76/104/167
s 7
f 39/97/168 84/88/169 85/87/170 41/98/171
f 53/78/172 50/69/106 46/72/173 55/79/174
f 61/74/175 45/71/176 64/68/105 68/75/177
f 71/85/178 68/75/177 67/94/179
f 73/73/180 65/67/104 49/70/107
f 71/85/178 67/94/179 75/103/181
f 77/107/182 54/101/183 57/91/184
s 18
f 58/111/185 60/112/186 19/113/187 20/114/188
s 19
f 30/125/189 31/126/190 70/127/191 72/128/192
s off
f 40/17/193 42/18/194 4/19/195 1/20/196
s 20
f 42/137/197 86/136/198 79/135/199 4/138/200
s 21
f 1/123/201 82/122/202 83/121/203 40/124/204
s off
f 56/115/205 48/119/206 5/120/207 12/116/208
f 27/129/209 10/133/210 43/134/211 62/130/212
s 19
f 27/129/213 62/130/214 70/127/191 31/126/190
s 18
f 56/115/215 12/116/216 19/113/187 60/112/186
s off
f 74/139/217 51/140/218 13/141/219 33/142/220
f 33/143/221 24/144/222 63/145/223 74/146/224
f 76/147/225 66/148/226 25/149/227 35/150/228
s 19
f 30/125/189 72/128/192 76/131/229 35/132/230
s off
f 17/151/231 52/152/232 78/153/233 38/154/234
s 18
f 58/111/185 20/114/188 38/117/235 78/118/236
s 7
f 57/91/184 53/78/172 55/79/174 59/92/237
s off
f 43/83/238 44/76/239 45/71/240
f 46/72/241 47/77/242 48/89/243
s 10
f 49/7/128 50/5/244 51/3/129
s 11
f 52/4/136 53/6/245 54/8/137
s 14
f 63/10/156 64/13/246 65/15/157
s 15
f 66/9/161 67/16/160 68/14/247
s 3
f 80/33/16 79/45/15 10/34/248 9/28/249
s 1
f 6/27/3 81/32/65 80/33/68 9/28/4
s 2
f 82/41/8 81/32/7 6/27/250 5/31/251
s 21
f 83/121/203 82/122/202 5/120/252 48/119/253
s 8
f 84/88/111 83/99/110 48/89/254 47/77/255
s 7
f 85/87/170 84/88/169 47/77/256 44/76/257
s 9
f 86/96/119 85/87/118 44/76/258 43/83/259
s 20
f 79/135/199 86/136/198 43/134/260 10/133/261
s 7
f 61/74/175 68/75/177 71/85/178 69/86/262
f 54/101/183 53/78/172 57/91/184
f 46/72/173 45/71/176 44/76/257 47/77/256
s 1
f 15/35/88 14/30/70 23/29/77 22/36/89
f 23/29/77 14/30/70 7/26/2 8/25/1
s 7
f 50/69/106 64/68/105 45/71/176 46/72/173
