# This file uses centimeters as units for non-parametric coordinates.

mtllib spoon_01.mtl
g default
v -0.406163 0.009913 2.249399
v -0.406163 0.009913 2.324047
v -0.406163 0.044479 2.324047
v -0.406163 0.044479 2.249399
v -0.583667 0.009631 2.249399
v -0.583667 0.044479 2.249399
v -0.583667 0.044479 2.324047
v -0.583667 0.009631 2.324047
v -0.272786 0.107818 2.324047
v -0.278022 0.123259 2.305387
v -0.223074 0.126478 2.308184
v -0.221175 0.110615 2.324047
v -0.278022 0.123259 2.268059
v -0.272786 0.107818 2.249399
v -0.221175 0.110615 2.249399
v -0.223074 0.126478 2.265263
v 0.824151 0.233425 2.324047
v 0.808288 0.249144 2.308183
v 0.808288 0.249144 2.265263
v 0.824151 0.233425 2.249399
v -0.742539 0.085573 2.314377
v -0.721128 0.100015 2.315680
v -0.742539 0.085573 2.259069
v -0.721128 0.100015 2.257766
v -0.350448 0.063827 2.389200
v -0.358943 0.077430 2.371998
v -0.636578 0.096441 2.386303
v -0.644242 0.085901 2.405376
v -0.417133 0.062558 2.412815
v -0.414721 0.075358 2.393301
v -0.358943 0.077430 2.201448
v -0.350448 0.063827 2.184247
v -0.644242 0.085901 2.168070
v -0.636578 0.096441 2.187144
v -0.414721 0.075358 2.180146
v -0.417133 0.062558 2.160632
v 0.256258 0.226578 2.249399
v 0.254264 0.242419 2.265263
v 0.256258 0.226578 2.324047
v 0.254264 0.242419 2.308184
v -0.547404 0.076364 2.402354
v -0.538654 0.061880 2.421251
v -0.538654 0.061880 2.152196
v -0.547404 0.076364 2.171092
v -0.278387 0.054091 2.308721
v -0.272786 0.071391 2.324047
v -0.223074 0.059532 2.307598
v -0.225574 0.075846 2.324047
v -0.278387 0.054091 2.264725
v -0.272786 0.071391 2.249399
v -0.223074 0.059532 2.265849
v -0.225574 0.075846 2.249399
v 0.807702 0.179904 2.307598
v 0.824151 0.196504 2.324047
v 0.807802 0.179906 2.265750
v 0.824151 0.196504 2.249399
v -0.727586 0.050273 2.258159
v -0.742539 0.070032 2.259069
v -0.727586 0.050273 2.315287
v -0.742539 0.070032 2.314377
v -0.357678 0.027244 2.375944
v -0.350448 0.045055 2.389200
v -0.638972 0.048857 2.392987
v -0.644242 0.068622 2.405376
v -0.415302 0.026556 2.398003
v -0.417133 0.045134 2.412815
v -0.357678 0.027244 2.197503
v -0.350448 0.045055 2.184247
v -0.638776 0.048647 2.180920
v -0.644242 0.068622 2.168070
v -0.415272 0.026500 2.175692
v -0.417133 0.045134 2.160632
v 0.254264 0.173186 2.307598
v 0.252235 0.189611 2.324047
v 0.254264 0.173186 2.265849
v 0.252235 0.189611 2.249399
v -0.545030 0.027019 2.407482
v -0.538654 0.045288 2.421251
v -0.545030 0.027019 2.165964
v -0.538654 0.045288 2.152196
vt 0.705281 0.054868
vt 0.705281 0.008076
vt 0.728424 0.008076
vt 0.728424 0.054868
vt 0.694876 0.044557
vt 0.694876 0.018325
vt 0.738277 0.044924
vt 0.738277 0.018020
vt 0.659463 0.099785
vt 0.659463 0.065117
vt 0.669204 0.065117
vt 0.669204 0.099785
vt 0.647077 0.100355
vt 0.647077 0.064546
vt 0.658579 0.008076
vt 0.669410 0.008076
vt 0.678256 0.064300
vt 0.678256 0.100602
vt 0.669410 0.156825
vt 0.658579 0.156825
vt 0.646058 0.148771
vt 0.646189 0.015842
vt 0.253168 0.781075
vt 0.299960 0.781075
vt 0.299960 0.892339
vt 0.253168 0.892339
vt 0.262775 0.700982
vt 0.290353 0.700982
vt 0.352259 0.868120
vt 0.346317 0.786804
vt 0.294469 0.982551
vt 0.258659 0.982551
vt 0.206967 0.786785
vt 0.200869 0.868120
vt 0.263479 0.666310
vt 0.289649 0.666310
vt 0.332490 0.750683
vt 0.220638 0.750683
vt 0.343172 0.927005
vt 0.355601 0.787951
vt 0.360889 0.864123
vt 0.210244 0.926883
vt 0.197527 0.787951
vt 0.192239 0.864123
vt 0.253168 0.697471
vt 0.253168 0.667877
vt 0.263479 0.367103
vt 0.289649 0.367103
vt 0.299960 0.697471
vt 0.299960 0.667877
vt 0.340799 0.746152
vt 0.212329 0.746152
vt 0.350938 0.930309
vt 0.202189 0.930309
vt 0.253168 0.368375
vt 0.263417 0.020132
vt 0.289648 0.020194
vt 0.299960 0.368375
vt 0.253168 0.009884
vt 0.299960 0.009884
vt 0.066941 0.781075
vt 0.113732 0.781075
vt 0.113732 0.892339
vt 0.066941 0.892339
vt 0.078637 0.700753
vt 0.102035 0.700753
vt 0.162817 0.869609
vt 0.157142 0.786440
vt 0.108487 0.978503
vt 0.072185 0.978503
vt 0.023531 0.786440
vt 0.017856 0.869609
vt 0.076884 0.666310
vt 0.103788 0.666310
vt 0.143789 0.751476
vt 0.036884 0.751476
vt 0.152755 0.925505
vt 0.169374 0.787951
vt 0.174661 0.864123
vt 0.027917 0.925505
vt 0.011299 0.787951
vt 0.006011 0.864123
vt 0.066941 0.697471
vt 0.066941 0.665120
vt 0.076884 0.367103
vt 0.103788 0.367103
vt 0.113732 0.697471
vt 0.113732 0.665120
vt 0.154571 0.746152
vt 0.026101 0.746152
vt 0.164711 0.930309
vt 0.107670 0.991924
vt 0.073002 0.991924
vt 0.015962 0.930309
vt 0.066941 0.365853
vt 0.076885 0.019827
vt 0.103788 0.019827
vt 0.113732 0.365853
vt 0.066941 0.009884
vt 0.113732 0.009884
vt 0.417753 0.665120
vt 0.395959 0.667877
vt 0.467270 0.368375
vt 0.490441 0.365853
vt 0.393166 0.697471
vt 0.416000 0.697471
vt 0.471590 0.009884
vt 0.494733 0.009884
vt 0.388425 0.746152
vt 0.376658 0.746152
vt 0.387630 0.787951
vt 0.376708 0.787951
vt 0.387205 0.864123
vt 0.376804 0.864123
vt 0.402262 0.930309
vt 0.391431 0.930309
vt 0.611036 0.667877
vt 0.589242 0.665120
vt 0.516553 0.365853
vt 0.539725 0.368375
vt 0.590995 0.697471
vt 0.613828 0.697471
vt 0.512261 0.009884
vt 0.535404 0.009884
vt 0.630336 0.746152
vt 0.618570 0.746152
vt 0.630287 0.787951
vt 0.619365 0.787951
vt 0.630190 0.864124
vt 0.619790 0.864124
vt 0.615564 0.930309
vt 0.604733 0.930309
vn 0.108952 -0.990967 -0.078193
vn 0.108913 -0.990964 0.078282
vn -0.134274 -0.982379 0.130007
vn -0.134088 -0.982446 -0.129695
vn -0.182755 0.971219 -0.152758
vn -0.182755 0.971219 0.152758
vn 0.170350 0.964920 0.199778
vn 0.170349 0.964920 -0.199778
vn 0.026929 0.772963 0.633879
vn 0.012691 0.766990 0.641534
vn 0.103280 0.797344 0.594622
vn 0.115930 0.800215 0.588402
vn -0.155799 0.692415 0.704477
vn -0.156084 0.692281 0.704546
vn -0.082707 0.699702 0.709631
vn -0.082708 0.699702 0.709631
vn 0.012691 0.766990 -0.641534
vn 0.026929 0.772963 -0.633879
vn 0.115930 0.800215 -0.588402
vn 0.103280 0.797344 -0.594623
vn -0.156084 0.692281 -0.704546
vn -0.155799 0.692415 -0.704478
vn -0.082708 0.699702 -0.709631
vn -0.082707 0.699702 -0.709631
vn -0.008547 0.706540 0.707621
vn -0.008547 0.706540 0.707622
vn 0.703896 0.710303 0.000000
vn 0.703896 0.710303 0.000000
vn 0.703896 0.710303 0.000000
vn 0.703896 0.710303 0.000000
vn -0.008547 0.706540 -0.707622
vn -0.008547 0.706540 -0.707621
vn -0.496422 0.837035 0.230080
vn -0.453334 0.822730 0.342933
vn -0.453334 0.822730 -0.342933
vn -0.496422 0.837035 -0.230080
vn -0.149005 0.839440 0.522626
vn -0.185418 0.836043 0.516384
vn -0.185418 0.836043 -0.516384
vn -0.149005 0.839440 -0.522626
vn 0.097952 0.817580 0.567422
vn 0.075550 0.817970 0.570279
vn 0.056691 0.822088 0.566532
vn 0.073252 0.826262 0.558502
vn 0.075550 0.817970 -0.570279
vn 0.097952 0.817580 -0.567423
vn 0.073252 0.826262 -0.558503
vn 0.056691 0.822087 -0.566532
vn -0.219983 0.975504 0.000000
vn -0.219983 0.975504 0.000000
vn -0.118104 0.993001 0.000000
vn -0.118104 0.993001 0.000000
vn -0.111869 0.930860 -0.347828
vn 0.092373 0.909284 -0.405796
vn 0.092373 0.909284 0.405796
vn -0.111869 0.930860 0.347828
vn -0.438331 0.898398 -0.027327
vn -0.438331 0.898398 0.027327
vn -0.428920 0.884156 -0.185191
vn -0.428920 0.884156 0.185191
vn 0.368229 0.921250 0.125322
vn 0.327306 0.843509 0.425867
vn 0.368229 0.921250 -0.125322
vn 0.327306 0.843509 -0.425867
vn -0.012139 0.999926 0.000000
vn -0.012139 0.999926 0.000000
vn 0.618015 -0.619670 0.483805
vn 0.618015 -0.619670 0.483805
vn 0.507485 -0.630490 0.587316
vn 0.490792 -0.630850 0.600958
vn 0.074368 -0.688661 0.721259
vn 0.074368 -0.688661 0.721260
vn 0.155412 -0.688194 0.708686
vn 0.155517 -0.688190 0.708667
vn 0.081159 -0.700544 0.708980
vn 0.081161 -0.700543 0.708980
vn 0.074368 -0.688661 -0.721259
vn 0.074368 -0.688661 -0.721259
vn 0.155517 -0.688190 -0.708667
vn 0.155412 -0.688194 -0.708686
vn 0.618014 -0.619671 -0.483805
vn 0.618014 -0.619671 -0.483805
vn 0.489715 -0.631920 -0.600712
vn 0.506659 -0.631433 -0.587017
vn 0.081176 -0.699955 -0.709558
vn 0.081177 -0.699955 -0.709558
vn 0.008559 -0.707597 0.706565
vn 0.008559 -0.707597 0.706565
vn 0.711385 -0.702803 0.000600
vn 0.711385 -0.702802 0.000600
vn 0.711385 -0.702803 0.000600
vn 0.711385 -0.702802 0.000600
vn 0.008483 -0.706514 -0.707648
vn 0.008483 -0.706514 -0.707648
vn -0.585735 -0.494054 -0.642514
vn -0.657073 -0.240198 -0.714535
vn -0.545629 -0.365039 -0.754345
vn -0.432019 -0.529977 -0.729715
vn -0.797423 -0.603421 0.000000
vn -0.797423 -0.603421 0.000000
vn -0.797423 -0.603421 0.000000
vn -0.797423 -0.603421 0.000000
vn -0.658154 -0.236161 0.714885
vn -0.588757 -0.488313 0.644140
vn -0.432759 -0.524783 0.733023
vn -0.546525 -0.360295 0.755975
vn 0.117456 -0.618302 0.777114
vn 0.143630 -0.618452 0.772585
vn -0.100062 -0.586535 0.803719
vn -0.061448 -0.595372 0.801097
vn 0.143251 -0.621010 -0.770601
vn 0.117149 -0.620889 -0.775095
vn -0.062241 -0.599030 -0.798304
vn -0.101298 -0.590467 -0.800679
vn 0.217718 -0.976012 0.000000
vn 0.217718 -0.976012 0.000000
vn 0.115914 -0.993259 -0.000000
vn 0.115920 -0.993259 -0.000000
vn -0.077518 -0.967542 0.240527
vn 0.062430 -0.981056 0.183388
vn 0.062571 -0.981066 -0.183288
vn -0.077029 -0.967626 -0.240346
vn 0.274512 -0.961478 -0.014263
vn 0.274480 -0.961486 0.014305
vn 0.250939 -0.964040 0.087501
vn 0.251112 -0.964010 -0.087329
vn -0.273868 -0.957518 -0.090310
vn -0.269724 -0.913825 -0.303601
vn -0.273875 -0.957442 0.091084
vn -0.269719 -0.913829 0.303591
vn 0.012139 -0.999926 -0.000000
vn 0.012139 -0.999926 -0.000000
vn 0.000000 0.000000 1.000000
vn 0.000000 0.000000 1.000000
vn 0.000000 0.000000 1.000000
vn 0.000000 0.000000 1.000000
vn 0.000000 0.000000 -1.000000
vn 0.000000 0.000000 -1.000000
vn -0.000000 0.000000 -1.000000
vn -0.000000 0.000000 -1.000000
vn 1.000000 0.000000 0.000000
vn 1.000000 0.000000 0.000000
vn 1.000000 0.000000 0.000000
vn 1.000000 0.000000 0.000000
vn -1.000000 0.000000 0.000000
vn -1.000000 0.000000 0.000000
vn -1.000000 0.000000 0.000000
vn -1.000000 0.000000 0.000000
vn 0.171881 0.000000 0.985118
vn 0.172731 0.000000 0.984969
vn -0.039523 0.000000 0.999219
vn -0.024477 0.000000 0.999700
vn 0.172731 0.000000 -0.984969
vn 0.171881 0.000000 -0.985118
vn -0.024476 0.000000 -0.999700
vn -0.039523 0.000000 -0.999219
vn 0.642707 0.000000 0.766112
vn 0.642707 0.000000 0.766112
vn 0.568165 0.000000 0.822914
vn 0.541558 0.000000 0.840664
vn -0.679342 0.000000 0.733822
vn -0.679342 0.000000 0.733822
vn 0.642707 0.000000 -0.766112
vn 0.642707 0.000000 -0.766112
vn 0.541558 0.000000 -0.840664
vn 0.568165 0.000000 -0.822914
vn -0.679342 0.000000 -0.733822
vn -0.679342 0.000000 -0.733822
vn 0.000000 0.000000 -1.000000
vn 0.000000 0.000000 -1.000000
vn 0.000000 0.000000 1.000000
vn 0.000000 0.000000 1.000000
vn -0.148673 0.000000 -0.988886
vn -0.148673 0.000000 -0.988886
vn -0.148674 0.000000 0.988886
vn -0.148674 0.000000 0.988886
vn -0.000000 0.000000 -1.000000
vn -0.000000 0.000000 -1.000000
vn 0.000000 0.000000 1.000000
vn 0.000000 0.000000 1.000000
s 1
g pCube2
usemtl initialShadingGroup
f 1/23/1 2/24/2 8/25/3 5/26/4
s 2
f 3/61/5 4/62/6 6/63/7 7/64/8
s 3
f 9/83/9 10/65/10 26/76/11 25/90/12
f 10/65/10 9/83/9 12/84/13 11/73/14
f 11/73/14 12/84/13 39/95/15 40/85/16
f 13/66/17 14/87/18 32/89/19 31/75/20
f 14/87/18 13/66/17 16/74/21 15/88/22
f 15/88/22 16/74/21 38/86/23 37/98/24
f 17/99/25 18/96/26 40/85/16 39/95/15
s off
f 18/7/27 17/4/28 20/3/29 19/8/30
s 3
f 19/97/31 20/100/32 37/98/24 38/86/23
f 21/11/33 22/17/34 24/18/35 23/12/36
f 22/70/34 21/93/33 28/94/37 27/80/38
f 23/92/36 24/69/35 34/77/39 33/91/40
f 25/90/12 26/76/11 30/71/41 29/81/42
f 27/80/38 28/94/37 42/82/43 41/72/44
f 29/81/42 30/71/41 41/72/44 42/82/43
f 31/75/20 32/89/19 36/78/45 35/68/46
f 33/91/40 34/77/39 44/67/47 43/79/48
f 35/68/46 36/78/45 43/79/48 44/67/47
s 2
f 16/74/49 11/73/50 40/85/51 38/86/52
f 30/71/53 3/61/5 7/64/8 41/72/54
f 44/67/55 6/63/7 4/62/6 35/68/56
f 10/65/57 11/73/50 16/74/49 13/66/58
f 10/65/57 3/61/5 30/71/53 26/76/59
f 10/65/57 13/66/58 4/62/6 3/61/5
f 35/68/56 4/62/6 13/66/58 31/75/60
f 24/69/61 6/63/7 44/67/55 34/77/62
f 7/64/8 6/63/7 24/69/61 22/70/63
f 41/72/54 7/64/8 22/70/63 27/80/64
f 38/86/52 40/85/51 18/96/65 19/97/66
s 7
f 45/28/67 46/49/68 62/51/69 61/37/70
s 8
f 46/49/71 45/28/72 47/36/73 48/50/74
f 48/50/74 47/36/73 73/48/75 74/58/76
s 9
f 49/27/77 50/45/78 52/46/79 51/35/80
s 10
f 50/45/81 49/27/82 67/38/83 68/52/84
s 9
f 51/35/80 52/46/79 76/55/85 75/47/86
s 8
f 53/57/87 54/60/88 74/58/76 73/48/75
s off
f 54/1/89 53/5/90 55/6/91 56/2/92
s 9
f 56/59/93 55/56/94 75/47/86 76/55/85
s 10
f 57/13/95 58/9/96 70/20/97 69/21/98
s off
f 58/9/99 57/13/100 59/14/101 60/10/102
s 7
f 60/10/103 59/14/104 63/22/105 64/15/106
f 61/37/70 62/51/69 66/40/107 65/30/108
f 64/53/106 63/39/105 77/29/109 78/41/110
f 65/30/108 66/40/107 78/41/110 77/29/109
s 10
f 68/52/84 67/38/83 71/33/111 72/43/112
f 69/42/98 70/54/97 80/44/113 79/34/114
f 72/43/112 71/33/111 79/34/114 80/44/113
s 1
f 47/36/115 51/35/116 75/47/117 73/48/118
f 77/29/119 8/25/3 2/24/2 65/30/120
f 71/33/121 1/23/1 5/26/4 79/34/122
f 49/27/123 51/35/116 47/36/115 45/28/124
f 49/27/123 45/28/124 2/24/2 1/23/1
f 65/30/120 2/24/2 45/28/124 61/37/125
f 49/27/123 1/23/1 71/33/121 67/38/126
f 79/34/122 5/26/4 57/32/127 69/42/128
f 59/31/129 8/25/3 77/29/119 63/39/130
f 5/26/4 8/25/3 59/31/129 57/32/127
f 73/48/118 75/47/117 55/56/131 53/57/132
s 14
f 12/101/133 48/102/134 74/103/135 39/104/136
s 15
f 52/117/137 15/118/138 37/119/139 76/120/140
s off
f 54/1/141 56/2/142 20/3/143 17/4/144
f 58/9/145 60/10/146 21/11/147 23/12/148
s 16
f 66/112/149 29/111/150 42/113/151 78/114/152
s 17
f 36/128/153 72/127/154 80/129/155 43/130/156
s 16
f 46/105/157 9/106/158 25/109/159 62/110/160
s 7
f 21/11/161 60/10/103 64/15/106 28/16/162
s 17
f 14/121/163 50/122/164 68/125/165 32/126/166
s 10
f 58/9/96 23/12/167 33/19/168 70/20/97
s 15
f 14/121/169 15/118/138 52/117/137 50/122/170
s 14
f 46/105/171 48/102/134 12/101/133 9/106/172
s 16
f 62/110/160 25/109/159 29/111/150 66/112/149
s 17
f 32/126/166 68/125/165 72/127/154 36/128/153
f 43/130/156 80/129/155 70/131/173 33/132/174
s 16
f 78/114/152 42/113/151 28/115/175 64/116/176
s 15
f 76/120/140 37/119/139 20/123/177 56/124/178
s 14
f 39/104/136 74/103/135 54/107/179 17/108/180
